<svg width="160" height="24" viewBox="0 0 160 24" fill="none" xmlns="http://www.w3.org/2000/svg">
<path d="M47.992 19.24C45.24 19.24 42.864 18.344 40.864 16.552L43.048 13.936C44.696 15.296 46.368 15.976 48.064 15.976C48.816 15.976 49.408 15.832 49.84 15.544C50.272 15.256 50.488 14.856 50.488 14.344C50.488 13.864 50.264 13.48 49.816 13.192C49.368 12.888 48.464 12.56 47.104 12.208C46.144 11.968 45.368 11.736 44.776 11.512C44.184 11.272 43.616 10.96 43.072 10.576C42.544 10.192 42.152 9.712 41.896 9.136C41.656 8.544 41.536 7.84 41.536 7.024C41.536 5.504 42.08 4.28 43.168 3.352C44.272 2.424 45.688 1.96 47.416 1.96C49.8 1.96 51.88 2.672 53.656 4.096L51.736 6.88C50.152 5.776 48.696 5.224 47.368 5.224C46.68 5.224 46.144 5.368 45.76 5.656C45.392 5.928 45.208 6.288 45.208 6.736C45.208 7.28 45.44 7.688 45.904 7.96C46.368 8.232 47.344 8.56 48.832 8.944C50.656 9.424 52 10.04 52.864 10.792C53.728 11.544 54.16 12.624 54.16 14.032C54.16 15.664 53.592 16.944 52.456 17.872C51.336 18.784 49.848 19.24 47.992 19.24ZM60.6316 19.24C59.3676 19.24 58.3116 18.888 57.4636 18.184C56.6316 17.48 56.2156 16.504 56.2156 15.256C56.2156 13.896 56.6796 12.872 57.6076 12.184C58.5516 11.496 59.8156 11.152 61.3996 11.152C62.4716 11.152 63.5196 11.328 64.5436 11.68V11.464C64.5436 9.896 63.6236 9.112 61.7836 9.112C60.6796 9.112 59.4956 9.344 58.2316 9.808L57.3196 7.024C58.8876 6.336 60.5516 5.992 62.3116 5.992C64.2476 5.992 65.6956 6.472 66.6556 7.432C67.5836 8.36 68.0476 9.728 68.0476 11.536V19H64.5196V17.608C63.5436 18.696 62.2476 19.24 60.6316 19.24ZM61.7356 16.72C62.5836 16.72 63.2716 16.512 63.7996 16.096C64.3276 15.664 64.5916 15.12 64.5916 14.464V13.816C63.9036 13.496 63.1276 13.336 62.2636 13.336C61.4636 13.336 60.8396 13.496 60.3916 13.816C59.9596 14.12 59.7436 14.568 59.7436 15.16C59.7436 15.64 59.9276 16.024 60.2956 16.312C60.6636 16.584 61.1436 16.72 61.7356 16.72ZM71.1867 19V6.136H74.8347V7.96C75.9067 6.584 77.1627 5.896 78.6027 5.896C79.9787 5.896 81.0507 6.32 81.8187 7.168C82.5867 8.016 82.9707 9.184 82.9707 10.672V19H79.3227V11.824C79.3227 10.976 79.1307 10.328 78.7467 9.88C78.3627 9.432 77.8187 9.208 77.1147 9.208C76.4107 9.208 75.8507 9.432 75.4347 9.88C75.0347 10.328 74.8347 10.976 74.8347 11.824V19H71.1867ZM98.1591 19.12L92.4231 2.2H96.3831L99.8631 13.576L103.631 2.152H106.799L110.567 13.576L114.047 2.2H117.911L112.175 19.12H108.959L105.167 8.128L101.375 19.12H98.1591ZM122.225 19.24C120.961 19.24 119.905 18.888 119.057 18.184C118.225 17.48 117.809 16.504 117.809 15.256C117.809 13.896 118.273 12.872 119.201 12.184C120.145 11.496 121.409 11.152 122.993 11.152C124.065 11.152 125.113 11.328 126.137 11.68V11.464C126.137 9.896 125.217 9.112 123.377 9.112C122.273 9.112 121.089 9.344 119.825 9.808L118.913 7.024C120.481 6.336 122.145 5.992 123.905 5.992C125.841 5.992 127.289 6.472 128.249 7.432C129.177 8.36 129.641 9.728 129.641 11.536V19H126.113V17.608C125.137 18.696 123.841 19.24 122.225 19.24ZM123.329 16.72C124.177 16.72 124.865 16.512 125.393 16.096C125.921 15.664 126.185 15.12 126.185 14.464V13.816C125.497 13.496 124.721 13.336 123.857 13.336C123.057 13.336 122.433 13.496 121.985 13.816C121.553 14.12 121.337 14.568 121.337 15.16C121.337 15.64 121.521 16.024 121.889 16.312C122.257 16.584 122.737 16.72 123.329 16.72ZM136.224 19.096L131.16 6.136H135.024L137.904 14.752L140.808 6.136H144.6L139.536 19.096H136.224ZM152.072 19.288C150.12 19.288 148.512 18.672 147.248 17.44C145.984 16.192 145.352 14.576 145.352 12.592C145.352 10.72 145.952 9.136 147.152 7.84C148.352 6.544 149.872 5.896 151.712 5.896C153.744 5.896 155.296 6.568 156.368 7.912C157.44 9.256 157.976 10.912 157.976 12.88C157.976 13.072 157.96 13.392 157.928 13.84H148.976C149.152 14.656 149.512 15.28 150.056 15.712C150.6 16.144 151.288 16.36 152.12 16.36C153.256 16.36 154.296 15.92 155.24 15.04L157.328 16.888C156.032 18.488 154.28 19.288 152.072 19.288ZM148.928 11.56H154.424C154.312 10.728 154.016 10.064 153.536 9.568C153.072 9.072 152.464 8.824 151.712 8.824C150.976 8.824 150.36 9.072 149.864 9.568C149.384 10.048 149.072 10.712 148.928 11.56Z" fill="white"/>
<mask id="mask0_203_107" style="mask-type:alpha" maskUnits="userSpaceOnUse" x="0" y="0" width="24" height="24">
<circle r="12" transform="matrix(-1 0 0 1 12 12)" fill="#C4C4C4"/>
</mask>
<g mask="url(#mask0_203_107)">
<path d="M12.5 12.5C17.5 1.5 27.5 12.5 27.5 12.5L17 37L-8 26.5L-3 12.5C-3 12.5 7.5 23.5 12.5 12.5Z" fill="url(#paint0_linear_203_107)" stroke="white"/>
</g>
<circle cx="6.5" cy="4.5" r="2.5" fill="url(#paint1_linear_203_107)"/>
<defs>
<linearGradient id="paint0_linear_203_107" x1="9.75" y1="7.61111" x2="20.5" y2="32" gradientUnits="userSpaceOnUse">
<stop stop-color="#4A829B"/>
<stop offset="1" stop-color="#1D2326"/>
</linearGradient>
<linearGradient id="paint1_linear_203_107" x1="5" y1="2.5" x2="10.9796" y2="13.3388" gradientUnits="userSpaceOnUse">
<stop stop-color="#DEDE31"/>
<stop offset="1" stop-color="white"/>
</linearGradient>
</defs>
</svg>
